{
	"asset":{
		"copyright":"All Rights Reserved",
		"generator":"Khronos glTF Blender I/O v5.1.20",
		"version":"2.0"
	},
	"scene":0,
	"scenes":[
		{
			"name":"Scene",
			"nodes":[
				36,
				46,
				48,
				50,
				52
			]
		}
	],
	"nodes":[
		{
			"name":"SOCKET_container_2x2_slot_000_000",
			"scale":[
				1.9468647241592407,
				1.9468647241592407,
				1.9468647241592407
			],
			"translation":[
				-10.95867919921875,
				0,
				-10.966360092163086
			]
		},
		{
			"name":"SOCKET_container_2x2_slot_000_001",
			"scale":[
				1.9468647241592407,
				1.9468647241592407,
				1.9468647241592407
			],
			"translation":[
				-6.566104888916016,
				0,
				-10.94713020324707
			]
		},
		{
			"name":"SOCKET_container_2x2_slot_000_002",
			"scale":[
				1.9468647241592407,
				1.9468647241592407,
				1.9468647241592407
			],
			"translation":[
				-2.1881561279296875,
				0,
				-10.978387832641602
			]
		},
		{
			"name":"SOCKET_container_2x2_slot_000_003",
			"scale":[
				1.9468647241592407,
				1.9468647241592407,
				1.9468647241592407
			],
			"translation":[
				2.1985435485839844,
				0,
				-10.965982437133789
			]
		},
		{
			"name":"SOCKET_container_2x2_slot_000_004",
			"scale":[
				1.9468647241592407,
				1.9468647241592407,
				1.9468647241592407
			],
			"translation":[
				6.599002838134766,
				0,
				-10.947118759155273
			]
		},
		{
			"name":"SOCKET_container_2x2_slot_000_005",
			"scale":[
				1.9468647241592407,
				1.9468647241592407,
				1.9468647241592407
			],
			"translation":[
				10.958858489990234,
				0,
				-10.935815811157227
			]
		},
		{
			"name":"SOCKET_container_2x2_slot_001_000",
			"scale":[
				1.9468647241592407,
				1.9468647241592407,
				1.9468647241592407
			],
			"translation":[
				-10.95867919921875,
				0,
				-6.557092666625977
			]
		},
		{
			"name":"SOCKET_container_2x2_slot_001_001",
			"scale":[
				1.9468647241592407,
				1.9468647241592407,
				1.9468647241592407
			],
			"translation":[
				-6.566104888916016,
				0,
				-6.537866592407227
			]
		},
		{
			"name":"SOCKET_container_2x2_slot_001_002",
			"scale":[
				1.9468647241592407,
				1.9468647241592407,
				1.9468647241592407
			],
			"translation":[
				-2.1881561279296875,
				0,
				-6.569124221801758
			]
		},
		{
			"name":"SOCKET_container_2x2_slot_001_003",
			"scale":[
				1.9468647241592407,
				1.9468647241592407,
				1.9468647241592407
			],
			"translation":[
				2.1985435485839844,
				0,
				-6.556718826293945
			]
		},
		{
			"name":"SOCKET_container_2x2_slot_001_004",
			"scale":[
				1.9468647241592407,
				1.9468647241592407,
				1.9468647241592407
			],
			"translation":[
				6.599002838134766,
				0,
				-6.53785514831543
			]
		},
		{
			"name":"SOCKET_container_2x2_slot_001_005",
			"scale":[
				1.9468647241592407,
				1.9468647241592407,
				1.9468647241592407
			],
			"translation":[
				10.958858489990234,
				0,
				-6.526552200317383
			]
		},
		{
			"name":"SOCKET_container_2x2_slot_002_000",
			"scale":[
				1.9468647241592407,
				1.9468647241592407,
				1.9468647241592407
			],
			"translation":[
				-10.95867919921875,
				0,
				-2.2038440704345703
			]
		},
		{
			"name":"SOCKET_container_2x2_slot_002_001",
			"scale":[
				1.9468647241592407,
				1.9468647241592407,
				1.9468647241592407
			],
			"translation":[
				-6.566104888916016,
				0,
				-2.1846141815185547
			]
		},
		{
			"name":"SOCKET_container_2x2_slot_002_002",
			"scale":[
				1.9468647241592407,
				1.9468647241592407,
				1.9468647241592407
			],
			"translation":[
				-2.1881561279296875,
				0,
				-2.2158756256103516
			]
		},
		{
			"name":"SOCKET_container_2x2_slot_002_003",
			"scale":[
				1.9468647241592407,
				1.9468647241592407,
				1.9468647241592407
			],
			"translation":[
				2.1985435485839844,
				0,
				-2.2034664154052734
			]
		},
		{
			"name":"SOCKET_container_2x2_slot_002_004",
			"scale":[
				1.9468647241592407,
				1.9468647241592407,
				1.9468647241592407
			],
			"translation":[
				6.599002838134766,
				0,
				-2.184602737426758
			]
		},
		{
			"name":"SOCKET_container_2x2_slot_002_005",
			"scale":[
				1.9468647241592407,
				1.9468647241592407,
				1.9468647241592407
			],
			"translation":[
				10.958858489990234,
				0,
				-2.173299789428711
			]
		},
		{
			"name":"SOCKET_container_2x2_slot_003_000",
			"scale":[
				1.9468647241592407,
				1.9468647241592407,
				1.9468647241592407
			],
			"translation":[
				-10.95867919921875,
				0,
				2.1690902709960938
			]
		},
		{
			"name":"SOCKET_container_2x2_slot_003_001",
			"scale":[
				1.9468647241592407,
				1.9468647241592407,
				1.9468647241592407
			],
			"translation":[
				-6.566104888916016,
				0,
				2.1883182525634766
			]
		},
		{
			"name":"SOCKET_container_2x2_slot_003_002",
			"scale":[
				1.9468647241592407,
				1.9468647241592407,
				1.9468647241592407
			],
			"translation":[
				-2.1881561279296875,
				0,
				2.1570587158203125
			]
		},
		{
			"name":"SOCKET_container_2x2_slot_003_003",
			"scale":[
				1.9468647241592407,
				1.9468647241592407,
				1.9468647241592407
			],
			"translation":[
				2.1985435485839844,
				0,
				2.169464111328125
			]
		},
		{
			"name":"SOCKET_container_2x2_slot_003_004",
			"scale":[
				1.9468647241592407,
				1.9468647241592407,
				1.9468647241592407
			],
			"translation":[
				6.599002838134766,
				0,
				2.1883277893066406
			]
		},
		{
			"name":"SOCKET_container_2x2_slot_003_005",
			"scale":[
				1.9468647241592407,
				1.9468647241592407,
				1.9468647241592407
			],
			"translation":[
				10.958858489990234,
				0,
				2.1996326446533203
			]
		},
		{
			"name":"SOCKET_container_2x2_slot_004_000",
			"scale":[
				1.9468647241592407,
				1.9468647241592407,
				1.9468647241592407
			],
			"translation":[
				-10.95867919921875,
				0,
				6.556476593017578
			]
		},
		{
			"name":"SOCKET_container_2x2_slot_004_001",
			"scale":[
				1.9468647241592407,
				1.9468647241592407,
				1.9468647241592407
			],
			"translation":[
				-6.566104888916016,
				0,
				6.575704574584961
			]
		},
		{
			"name":"SOCKET_container_2x2_slot_004_002",
			"scale":[
				1.9468647241592407,
				1.9468647241592407,
				1.9468647241592407
			],
			"translation":[
				-2.1881561279296875,
				0,
				6.544445037841797
			]
		},
		{
			"name":"SOCKET_container_2x2_slot_004_003",
			"scale":[
				1.9468647241592407,
				1.9468647241592407,
				1.9468647241592407
			],
			"translation":[
				2.1985435485839844,
				0,
				6.556852340698242
			]
		},
		{
			"name":"SOCKET_container_2x2_slot_004_004",
			"scale":[
				1.9468647241592407,
				1.9468647241592407,
				1.9468647241592407
			],
			"translation":[
				6.599002838134766,
				0,
				6.575716018676758
			]
		},
		{
			"name":"SOCKET_container_2x2_slot_004_005",
			"scale":[
				1.9468647241592407,
				1.9468647241592407,
				1.9468647241592407
			],
			"translation":[
				10.958858489990234,
				0,
				6.587018966674805
			]
		},
		{
			"name":"SOCKET_container_2x2_slot_005_000",
			"scale":[
				1.9468647241592407,
				1.9468647241592407,
				1.9468647241592407
			],
			"translation":[
				-10.95867919921875,
				0,
				10.939008712768555
			]
		},
		{
			"name":"SOCKET_container_2x2_slot_005_001",
			"scale":[
				1.9468647241592407,
				1.9468647241592407,
				1.9468647241592407
			],
			"translation":[
				-6.566104888916016,
				0,
				10.958234786987305
			]
		},
		{
			"name":"SOCKET_container_2x2_slot_005_002",
			"scale":[
				1.9468647241592407,
				1.9468647241592407,
				1.9468647241592407
			],
			"translation":[
				-2.1881561279296875,
				0,
				10.926977157592773
			]
		},
		{
			"name":"SOCKET_container_2x2_slot_005_003",
			"scale":[
				1.9468647241592407,
				1.9468647241592407,
				1.9468647241592407
			],
			"translation":[
				2.1985435485839844,
				0,
				10.939382553100586
			]
		},
		{
			"name":"SOCKET_container_2x2_slot_005_004",
			"scale":[
				1.9468647241592407,
				1.9468647241592407,
				1.9468647241592407
			],
			"translation":[
				6.599002838134766,
				0,
				10.958246231079102
			]
		},
		{
			"name":"SOCKET_container_2x2_slot_005_005",
			"scale":[
				1.9468647241592407,
				1.9468647241592407,
				1.9468647241592407
			],
			"translation":[
				10.958858489990234,
				0,
				10.969549179077148
			]
		},
		{
			"children":[
				0,
				1,
				2,
				3,
				4,
				5,
				6,
				7,
				8,
				9,
				10,
				11,
				12,
				13,
				14,
				15,
				16,
				17,
				18,
				19,
				20,
				21,
				22,
				23,
				24,
				25,
				26,
				27,
				28,
				29,
				30,
				31,
				32,
				33,
				34,
				35
			],
			"mesh":0,
			"name":"MESH_container_tile_2x2",
			"scale":[
				0.5136464834213257,
				0.5136464834213257,
				0.5136464834213257
			],
			"translation":[
				32,
				2,
				-16
			]
		},
		{
			"name":"SOCKET_container_1x1_slot_000_000",
			"scale":[
				2.000000238418579,
				2.000000238418579,
				2.000000238418579
			],
			"translation":[
				-4.659999847412109,
				1.067920207977295,
				-4.465615749359131
			]
		},
		{
			"name":"SOCKET_container_1x1_slot_000_001",
			"scale":[
				2.000000238418579,
				2.000000238418579,
				2.000000238418579
			],
			"translation":[
				-0.12000274658203125,
				1.067920207977295,
				-4.48792028427124
			]
		},
		{
			"name":"SOCKET_container_1x1_slot_000_002",
			"scale":[
				2.000000238418579,
				2.000000238418579,
				2.000000238418579
			],
			"translation":[
				4.379997253417969,
				1.0679216384887695,
				-4.4856157302856445
			]
		},
		{
			"name":"SOCKET_container_1x1_slot_001_000",
			"scale":[
				2.000000238418579,
				2.000000238418579,
				2.000000238418579
			],
			"translation":[
				-4.680000305175781,
				1.0679216384887695,
				0.05438400059938431
			]
		},
		{
			"name":"SOCKET_container_1x1_slot_001_001",
			"scale":[
				2.000000238418579,
				2.000000238418579,
				2.000000238418579
			],
			"translation":[
				-0.12000274658203125,
				1.0679216384887695,
				0.05438400059938431
			]
		},
		{
			"name":"SOCKET_container_1x1_slot_001_002",
			"scale":[
				2.000000238418579,
				2.000000238418579,
				2.000000238418579
			],
			"translation":[
				4.379997253417969,
				1.067920207977295,
				0.05438400059938431
			]
		},
		{
			"name":"SOCKET_container_1x1_slot_002_000",
			"scale":[
				2.000000238418579,
				2.000000238418579,
				2.000000238418579
			],
			"translation":[
				-4.680000305175781,
				1.0679216384887695,
				4.6143798828125
			]
		},
		{
			"name":"SOCKET_container_1x1_slot_002_001",
			"scale":[
				2.000000238418579,
				2.000000238418579,
				2.000000238418579
			],
			"translation":[
				-0.12000274658203125,
				1.0679216384887695,
				4.6143798828125
			]
		},
		{
			"name":"SOCKET_container_1x1_slot_002_002",
			"scale":[
				2.000000238418579,
				2.000000238418579,
				2.000000238418579
			],
			"translation":[
				4.379997253417969,
				1.067920207977295,
				4.6143798828125
			]
		},
		{
			"children":[
				37,
				38,
				39,
				40,
				41,
				42,
				43,
				44,
				45
			],
			"mesh":1,
			"name":"MESH_container_tile_1x1",
			"scale":[
				0.5,
				0.5,
				0.5
			],
			"translation":[
				32,
				2,
				0
			]
		},
		{
			"name":"SOCKET_normal_2x2_slot_000",
			"translation":[
				-2.384185791015625e-06,
				0,
				-2.6702880859375e-05
			]
		},
		{
			"children":[
				47
			],
			"mesh":2,
			"name":"MESH_normal_tile_2x2",
			"scale":[
				2,
				1,
				2
			],
			"translation":[
				0,
				1,
				-8
			]
		},
		{
			"name":"SOCKET_normal_1x1_slot_000",
			"translation":[
				-2.384185791015625e-06,
				0,
				-2.765655517578125e-05
			]
		},
		{
			"children":[
				49
			],
			"mesh":3,
			"name":"MESH_normal_tile_1x1",
			"translation":[
				0,
				1,
				8
			]
		},
		{
			"name":"SOCKET_atom_stack",
			"translation":[
				0,
				1.1249938011169434,
				-5.7220458984375e-06
			]
		},
		{
			"children":[
				51
			],
			"mesh":4,
			"name":"MESH_atom_tile",
			"translation":[
				15,
				-0.19999992847442627,
				0
			]
		}
	],
	"materials":[
		{
			"alphaMode":"BLEND",
			"doubleSided":true,
			"name":"MATERIAL_container_tile.png",
			"pbrMetallicRoughness":{
				"baseColorTexture":{
					"index":0
				},
				"metallicFactor":0.4000000059604645,
				"roughnessFactor":0.25
			}
		},
		{
			"alphaMode":"BLEND",
			"doubleSided":true,
			"name":"MATERIAL_normal_tile.png",
			"pbrMetallicRoughness":{
				"baseColorTexture":{
					"index":1
				},
				"metallicFactor":0.4000000059604645,
				"roughnessFactor":0.5
			}
		},
		{
			"alphaMode":"BLEND",
			"doubleSided":true,
			"name":"MATERIAL_atom_tile.png",
			"pbrMetallicRoughness":{
				"baseColorTexture":{
					"index":2
				},
				"metallicFactor":0.4000000059604645,
				"roughnessFactor":0.5
			}
		}
	],
	"meshes":[
		{
			"name":"MESH_container_tile_2x2",
			"primitives":[
				{
					"attributes":{
						"POSITION":0,
						"NORMAL":1,
						"TEXCOORD_0":2
					},
					"indices":3,
					"material":0
				}
			]
		},
		{
			"name":"MESH_container_tile_1x1",
			"primitives":[
				{
					"attributes":{
						"POSITION":4,
						"NORMAL":5,
						"TEXCOORD_0":6
					},
					"indices":3,
					"material":0
				}
			]
		},
		{
			"name":"MESH_normal_tile_2x2",
			"primitives":[
				{
					"attributes":{
						"POSITION":7,
						"NORMAL":8,
						"TEXCOORD_0":9
					},
					"indices":10,
					"material":1
				}
			]
		},
		{
			"name":"MESH_normal_tile_1x1",
			"primitives":[
				{
					"attributes":{
						"POSITION":11,
						"NORMAL":12,
						"TEXCOORD_0":13
					},
					"indices":10,
					"material":1
				}
			]
		},
		{
			"name":"MESH_atom_tile",
			"primitives":[
				{
					"attributes":{
						"POSITION":14,
						"NORMAL":15,
						"TEXCOORD_0":16
					},
					"indices":10,
					"material":2
				}
			]
		}
	],
	"textures":[
		{
			"sampler":0,
			"source":0
		},
		{
			"sampler":0,
			"source":1
		},
		{
			"sampler":0,
			"source":2
		}
	],
	"images":[
		{
			"mimeType":"image/png",
			"name":"mosiac_tile_base1",
			"uri":"tile_materials/mosiac_tile_base1.png"
		},
		{
			"mimeType":"image/png",
			"name":"normal_tile_base",
			"uri":"tile_materials/normal_tile_base.png"
		},
		{
			"mimeType":"image/png",
			"name":"atom_tile_base1",
			"uri":"tile_materials/atom_tile_base1.png"
		}
	],
	"accessors":[
		{
			"bufferView":0,
			"componentType":5126,
			"count":56,
			"max":[
				15.576567649841309,
				1.376573085784912,
				15.574084281921387
			],
			"min":[
				-15.571684837341309,
				-3.8935320377349854,
				-15.57416820526123
			],
			"type":"VEC3"
		},
		{
			"bufferView":1,
			"componentType":5126,
			"count":56,
			"type":"VEC3"
		},
		{
			"bufferView":2,
			"componentType":5126,
			"count":56,
			"type":"VEC2"
		},
		{
			"bufferView":3,
			"componentType":5123,
			"count":84,
			"type":"SCALAR"
		},
		{
			"bufferView":4,
			"componentType":5126,
			"count":56,
			"max":[
				8.000848770141602,
				0.7070719003677368,
				7.999573707580566
			],
			"min":[
				-7.998341083526611,
				-1.9998990297317505,
				-7.999616622924805
			],
			"type":"VEC3"
		},
		{
			"bufferView":5,
			"componentType":5126,
			"count":56,
			"type":"VEC3"
		},
		{
			"bufferView":6,
			"componentType":5126,
			"count":56,
			"type":"VEC2"
		},
		{
			"bufferView":7,
			"componentType":5126,
			"count":24,
			"max":[
				3.999797821044922,
				-4.5299530029296875e-06,
				3.9997644424438477
			],
			"min":[
				-3.999795913696289,
				-0.9999542236328125,
				-3.9998273849487305
			],
			"type":"VEC3"
		},
		{
			"bufferView":8,
			"componentType":5126,
			"count":24,
			"type":"VEC3"
		},
		{
			"bufferView":9,
			"componentType":5126,
			"count":24,
			"type":"VEC2"
		},
		{
			"bufferView":10,
			"componentType":5123,
			"count":36,
			"type":"SCALAR"
		},
		{
			"bufferView":11,
			"componentType":5126,
			"count":24,
			"max":[
				3.999797821044922,
				-4.5299530029296875e-06,
				3.9997644424438477
			],
			"min":[
				-3.999795913696289,
				-0.9999542236328125,
				-3.9998273849487305
			],
			"type":"VEC3"
		},
		{
			"bufferView":12,
			"componentType":5126,
			"count":24,
			"type":"VEC3"
		},
		{
			"bufferView":13,
			"componentType":5126,
			"count":24,
			"type":"VEC2"
		},
		{
			"bufferView":14,
			"componentType":5126,
			"count":24,
			"max":[
				0.9999465942382812,
				0.24998760223388672,
				0.9999493956565857
			],
			"min":[
				-0.9999523162841797,
				0,
				-0.9999493956565857
			],
			"type":"VEC3"
		},
		{
			"bufferView":15,
			"componentType":5126,
			"count":24,
			"type":"VEC3"
		},
		{
			"bufferView":16,
			"componentType":5126,
			"count":24,
			"type":"VEC2"
		}
	],
	"bufferViews":[
		{
			"buffer":0,
			"byteLength":672,
			"byteOffset":0,
			"target":34962
		},
		{
			"buffer":0,
			"byteLength":672,
			"byteOffset":672,
			"target":34962
		},
		{
			"buffer":0,
			"byteLength":448,
			"byteOffset":1344,
			"target":34962
		},
		{
			"buffer":0,
			"byteLength":168,
			"byteOffset":1792,
			"target":34963
		},
		{
			"buffer":0,
			"byteLength":672,
			"byteOffset":1960,
			"target":34962
		},
		{
			"buffer":0,
			"byteLength":672,
			"byteOffset":2632,
			"target":34962
		},
		{
			"buffer":0,
			"byteLength":448,
			"byteOffset":3304,
			"target":34962
		},
		{
			"buffer":0,
			"byteLength":288,
			"byteOffset":3752,
			"target":34962
		},
		{
			"buffer":0,
			"byteLength":288,
			"byteOffset":4040,
			"target":34962
		},
		{
			"buffer":0,
			"byteLength":192,
			"byteOffset":4328,
			"target":34962
		},
		{
			"buffer":0,
			"byteLength":72,
			"byteOffset":4520,
			"target":34963
		},
		{
			"buffer":0,
			"byteLength":288,
			"byteOffset":4592,
			"target":34962
		},
		{
			"buffer":0,
			"byteLength":288,
			"byteOffset":4880,
			"target":34962
		},
		{
			"buffer":0,
			"byteLength":192,
			"byteOffset":5168,
			"target":34962
		},
		{
			"buffer":0,
			"byteLength":288,
			"byteOffset":5360,
			"target":34962
		},
		{
			"buffer":0,
			"byteLength":288,
			"byteOffset":5648,
			"target":34962
		},
		{
			"buffer":0,
			"byteLength":192,
			"byteOffset":5936,
			"target":34962
		}
	],
	"samplers":[
		{
			"magFilter":9728,
			"minFilter":9984
		}
	],
	"buffers":[
		{
			"byteLength":6128,
			"uri":"musaic_tiles_model.bin"
		}
	]
}
